<svg width="192" height="54" viewBox="0 0 192 54" fill="none" xmlns="http://www.w3.org/2000/svg">
<path fill-rule="evenodd" clip-rule="evenodd" d="M22.9518 0H0V9.45107L6.58436 15.6865L0 13.6189V31.4621L4.12808 42.4986L0 38.5833V54H10.6144L12 48L13.3856 54H41.0361L40.9596 53.384L46.8968 54H91.9508L91.7136 53.7544L95.9977 51.1802L96.9137 54H131.346L131.742 51.4079L138.26 54H174.368L180.266 50.8053L181.148 54H192V28.6197L180.264 21.0629L192 22.4561V0H171.801L169.211 3.4379L166.326 0H122.843L122.934 0.122215L116.057 3.1359L115.466 0H67.3369L63.0344 4.24079L60.4272 0H36.8041L23.1234 3.81454L22.9518 0Z" fill="#FCEFDE"/>
</svg>
