<svg width="400" height="72" viewBox="0 0 400 72" fill="none" xmlns="http://www.w3.org/2000/svg">
<mask id="path-1-inside-1_353_5053" fill="white">
<path fill-rule="evenodd" clip-rule="evenodd" d="M352.042 2.19516L353.95 0H292.087L284.025 5.61852L286.441 0H232.978L230.095 9.14683L229.06 0H170.844L173.532 3.23821L157.86 0H101.622L101.126 3.09338L90.9235 0H35.3946L31.1049 5.84471L26.9333 0H0V72H24.9418L21.5309 67.6819L39.4031 72H99.4087L99.1476 64.286L101.871 72H175.769L181.603 62.4132L179.52 72H232.203L232.259 71.2934L250.617 71.6841L250.066 72H300.816L303.392 67.3909L304.572 72H364.475L371.846 68.4939L371.226 72H400V47.0959L398.188 50.6637L399.264 18.1353L400 18.8585V0H364.619L352.042 2.19516Z"/>
</mask>
<path d="M353.95 0L354.705 0.655989L356.144 -1H353.95V0ZM352.042 2.19516L351.287 1.53917L349.44 3.66442L352.214 3.18027L352.042 2.19516ZM292.087 0V-1H291.773L291.515 -0.8204L292.087 0ZM284.025 5.61852L283.107 5.22361L281.723 8.44192L284.597 6.43892L284.025 5.61852ZM286.441 0L287.359 0.394909L287.959 -1H286.441V0ZM232.978 0V-1H232.245L232.025 -0.300635L232.978 0ZM230.095 9.14683L229.102 9.25931L231.049 9.44747L230.095 9.14683ZM229.06 0L230.053 -0.112479L229.953 -1H229.06V0ZM170.844 0V-1H168.715L170.075 0.638676L170.844 0ZM173.532 3.23821L173.33 4.21752L176.124 4.79482L174.301 2.59953L173.532 3.23821ZM157.86 0L158.062 -0.979313L157.962 -1H157.86V0ZM101.622 0V-1H100.769L100.634 -0.15823L101.622 0ZM101.126 3.09338L100.836 4.05036L101.932 4.38276L102.113 3.25162L101.126 3.09338ZM90.9235 0L91.2137 -0.956979L91.0718 -1H90.9235V0ZM35.3946 0V-1H34.8881L34.5885 -0.591683L35.3946 0ZM31.1049 5.84471L30.291 6.42566L31.0936 7.5502L31.9111 6.4364L31.1049 5.84471ZM26.9333 0L27.7472 -0.580951L27.4481 -1H26.9333V0ZM0 0V-1H-1V0H0ZM0 72H-1V73H0V72ZM24.9418 72V73H27.006L25.7265 71.3801L24.9418 72ZM21.5309 67.6819L21.7657 66.7098L18.9516 66.0299L20.7461 68.3017L21.5309 67.6819ZM39.4031 72L39.1683 72.972L39.2841 73H39.4031V72ZM99.4087 72V73H100.443L100.408 71.9662L99.4087 72ZM99.1476 64.286L100.091 63.9531L98.1482 64.3198L99.1476 64.286ZM101.871 72L100.928 72.3329L101.163 73H101.871V72ZM175.769 72V73H176.331L176.624 72.5198L175.769 72ZM181.603 62.4132L182.58 62.6255L180.749 61.8934L181.603 62.4132ZM179.52 72L178.543 71.7877L178.279 73H179.52V72ZM232.203 72V73H233.126L233.199 72.0796L232.203 72ZM232.259 71.2934L232.28 70.2936L231.337 70.2736L231.262 71.2138L232.259 71.2934ZM250.617 71.6841L251.115 72.5513L254.232 70.7608L250.638 70.6843L250.617 71.6841ZM250.066 72L249.568 71.1328L246.317 73H250.066V72ZM300.816 72V73H301.403L301.689 72.4878L300.816 72ZM303.392 67.3909L304.36 67.1429L303.74 64.7181L302.519 66.9031L303.392 67.3909ZM304.572 72L303.603 72.248L303.795 73H304.572V72ZM364.475 72V73H364.701L364.905 72.903L364.475 72ZM371.846 68.4939L372.83 68.6678L373.168 66.7574L371.416 67.5908L371.846 68.4939ZM371.226 72L370.241 71.826L370.034 73H371.226V72ZM400 72V73H401V72H400ZM400 47.0959H401L399.108 46.6431L400 47.0959ZM398.188 50.6637L397.189 50.6306L399.08 51.1165L398.188 50.6637ZM399.264 18.1353L399.965 17.4219L398.34 15.8255L398.264 18.1022L399.264 18.1353ZM400 18.8585L399.299 19.5718L401 21.2428V18.8585H400ZM400 0H401V-1H400V0ZM364.619 0V-1H364.532L364.447 -0.985107L364.619 0ZM353.195 -0.655989L351.287 1.53917L352.797 2.85115L354.705 0.655989L353.195 -0.655989ZM292.087 1H353.95V-1H292.087V1ZM284.597 6.43892L292.659 0.8204L291.515 -0.8204L283.454 4.79812L284.597 6.43892ZM285.522 -0.394909L283.107 5.22361L284.944 6.01343L287.359 0.394909L285.522 -0.394909ZM232.978 1H286.441V-1H232.978V1ZM231.049 9.44747L233.932 0.300635L232.025 -0.300635L229.141 8.8462L231.049 9.44747ZM228.066 0.112479L229.102 9.25931L231.089 9.03436L230.053 -0.112479L228.066 0.112479ZM170.844 1H229.06V-1H170.844V1ZM174.301 2.59953L171.614 -0.638676L170.075 0.638676L172.763 3.87689L174.301 2.59953ZM157.658 0.979313L173.33 4.21752L173.734 2.2589L158.062 -0.979313L157.658 0.979313ZM101.622 1H157.86V-1H101.622V1ZM102.113 3.25162L102.609 0.15823L100.634 -0.15823L100.139 2.93515L102.113 3.25162ZM90.6334 0.956979L100.836 4.05036L101.416 2.13641L91.2137 -0.956979L90.6334 0.956979ZM35.3946 1H90.9235V-1H35.3946V1ZM31.9111 6.4364L36.2008 0.591683L34.5885 -0.591683L30.2988 5.25303L31.9111 6.4364ZM26.1193 0.580951L30.291 6.42566L31.9189 5.26376L27.7472 -0.580951L26.1193 0.580951ZM0 1H26.9333V-1H0V1ZM1 72V0H-1V72H1ZM24.9418 71H0V73H24.9418V71ZM20.7461 68.3017L24.1571 72.6199L25.7265 71.3801L22.3156 67.062L20.7461 68.3017ZM39.638 71.028L21.7657 66.7098L21.296 68.6539L39.1683 72.972L39.638 71.028ZM99.4087 71H39.4031V73H99.4087V71ZM98.1482 64.3198L98.4093 72.0338L100.408 71.9662L100.147 64.2521L98.1482 64.3198ZM102.814 71.6671L100.091 63.9531L98.2046 64.6188L100.928 72.3329L102.814 71.6671ZM175.769 71H101.871V73H175.769V71ZM180.749 61.8934L174.915 71.4802L176.624 72.5198L182.457 62.933L180.749 61.8934ZM180.497 72.2123L182.58 62.6255L180.626 62.2009L178.543 71.7877L180.497 72.2123ZM232.203 71H179.52V73H232.203V71ZM231.262 71.2138L231.206 71.9204L233.199 72.0796L233.256 71.373L231.262 71.2138ZM250.638 70.6843L232.28 70.2936L232.238 72.2932L250.595 72.6839L250.638 70.6843ZM250.564 72.8672L251.115 72.5513L250.118 70.8169L249.568 71.1328L250.564 72.8672ZM300.816 71H250.066V73H300.816V71ZM302.519 66.9031L299.943 71.5122L301.689 72.4878L304.265 67.8787L302.519 66.9031ZM305.54 71.752L304.36 67.1429L302.423 67.6389L303.603 72.248L305.54 71.752ZM364.475 71H304.572V73H364.475V71ZM371.416 67.5908L364.046 71.097L364.905 72.903L372.275 69.3969L371.416 67.5908ZM372.211 72.174L372.83 68.6678L370.861 68.3199L370.241 71.826L372.211 72.174ZM400 71H371.226V73H400V71ZM399 47.0959V72H401V47.0959H399ZM399.108 46.6431L397.296 50.2109L399.08 51.1165L400.892 47.5487L399.108 46.6431ZM399.188 50.6968L400.263 18.1683L398.264 18.1022L397.189 50.6306L399.188 50.6968ZM398.563 18.8486L399.299 19.5718L400.701 18.1452L399.965 17.4219L398.563 18.8486ZM399 0V18.8585H401V0H399ZM364.619 1H400V-1H364.619V1ZM352.214 3.18027L364.79 0.985107L364.447 -0.985107L351.87 1.21006L352.214 3.18027Z" fill="#A7A7A7" mask="url(#path-1-inside-1_353_5053)"/>
</svg>
